<svg xmlns="http://www.w3.org/2000/svg" viewBox="0 0 420 108" xml:space="preserve">
  <!-- Icon (original 108x108) -->
  <path fill="#FAFAFC" opacity="1" stroke="none"
    d="M96.025818,109.000000 C64.021851,109.000000 32.522522,109.000000 1.017397,109.000000 C1.011598,73.008507 1.011598,37.017002 1.011598,1.012750 C36.990730,1.012750 72.981461,1.012750 108.986099,1.012750 C108.986099,36.989960 108.986099,72.979927 108.986099,109.000000 C104.843513,109.000000 100.686981,109.000000 96.025818,109.000000
    M60.328674,75.155258 C70.234604,77.389717 79.106407,76.464653 85.424835,67.223175 C87.910568,63.587486 88.254005,58.869762 85.063004,56.965240 C81.033051,54.560005 76.194534,53.539276 72.051300,51.284599 C68.768921,49.498390 63.341805,50.895039 62.564686,45.270561 C61.209953,45.637356 59.890697,45.874310 58.670040,46.359379 C57.485191,46.830212 56.401539,47.555721 54.637688,48.515232 C56.903111,49.417004 58.505417,50.130207 60.157959,50.696911 C63.585495,51.872307 67.151947,52.713303 70.457008,54.158829 C75.587425,56.402702 76.228111,59.105770 71.934761,62.524197 C67.592064,65.981911 62.513199,68.517403 57.743351,71.434868 C56.305996,72.314026 54.823689,73.119690 53.361977,73.959023 C53.469410,74.249756 53.576847,74.540497 53.684280,74.831230 C55.607578,74.916489 57.530880,75.001747 60.328674,75.155258
    M45.072784,71.569344 C50.831547,68.789337 56.933647,66.538666 62.256294,63.086288 C68.032188,59.339928 67.457687,56.012772 61.303749,53.354050 C59.089291,52.397320 56.674171,51.915733 54.387051,51.113468 C52.131195,50.322170 49.921413,49.399513 47.762989,48.562248 C48.395958,47.007427 48.834606,45.929928 49.796967,43.565994 C45.945225,45.155743 43.304955,46.245476 40.664680,47.335213 C40.664078,47.908123 40.663475,48.481033 40.662868,49.053944 C43.553600,50.370781 46.553337,51.497860 49.295570,53.073189 C51.035397,54.072666 52.392113,55.739044 53.920635,57.106346 C52.578926,58.487709 51.484898,60.467312 49.851292,61.143650 C43.788784,63.653637 37.541279,65.714729 31.382610,67.996658 C30.406355,68.358383 29.529676,68.988861 28.606958,69.495079 C28.723106,70.150444 28.839252,70.805817 28.955399,71.461189 C34.086769,71.604721 39.218140,71.748253 45.072784,71.569344 z"/>
  <path fill="#223A61" opacity="1" stroke="none"
    d="M59.891426,75.121132 C57.530880,75.001747 55.607578,74.916489 53.684280,74.831230 C53.576847,74.540497 53.469410,74.249756 53.361977,73.959023 C54.823689,73.119690 56.305996,72.314026 57.743351,71.434868 C62.513199,68.517403 67.592064,65.981911 71.934761,62.524197 C76.228111,59.105770 75.587425,56.402702 70.457008,54.158829 C67.151947,52.713303 63.585495,51.872307 60.157959,50.696911 C58.505417,50.130207 56.903111,49.417004 54.637688,48.515232 C56.401539,47.555721 57.485191,46.830212 58.670040,46.359379 C59.890697,45.874310 61.209953,45.637356 62.564686,45.270561 C63.341805,50.895039 68.768921,49.498390 72.051300,51.284599 C76.194534,53.539276 81.033051,54.560005 85.063004,56.965240 C88.254005,58.869762 87.910568,63.587486 85.424835,67.223175 C79.106407,76.464653 70.234604,77.389717 59.891426,75.121132 z"/>
  <path fill="#243C62" opacity="1" stroke="none"
    d="M44.711147,71.730560 C39.218140,71.748253 34.086769,71.604721 28.955399,71.461189 C28.839252,70.805817 28.723106,70.150444 28.606958,69.495079 C29.529676,68.988861 30.406355,68.358383 31.382610,67.996658 C37.541279,65.714729 43.788784,63.653637 49.851292,61.143650 C51.484898,60.467312 52.578926,58.487709 53.920639,57.106346 C52.392113,55.739044 51.035397,54.072666 49.295570,53.073189 C46.553337,51.497860 43.553600,50.370781 40.662868,49.053944 C40.663475,48.481033 40.664078,47.908123 40.664680,47.335213 C43.304955,46.245476 45.945225,45.155743 49.796967,43.565994 C48.834606,45.929928 48.395958,47.007427 47.762989,48.562248 C49.921413,49.399513 52.131195,50.322170 54.387051,51.113468 C56.674171,51.915733 59.089291,52.397320 61.303749,53.354050 C67.457687,56.012772 68.032188,59.339928 62.256294,63.086288 C56.933647,66.538666 50.831547,68.789337 44.711147,71.730560 z"/>

  <!-- Text: Clearpath -->
  <text x="124" y="48" font-family="'Space Grotesk', sans-serif" font-size="32" font-weight="700">
    <tspan fill="#ffffff">Clear</tspan><tspan fill="#ef9f38">path</tspan>
  </text>
  <!-- Text: DATA -->
  <text x="130" y="78" font-family="'Space Grotesk', sans-serif" font-size="20" font-weight="700" fill="#64b8c0" letter-spacing="3">DATA</text>
</svg>
